# xmcd
#
# Track frame offsets:
#	150
#	13789
#	30584
#	46648
#	59486
#	73301
#	91268
#	110191
#	123449
#	143205
#	158652
#	177969
#	193790
#	217123
#	234017
#	248001
#	270881
#	285234
#	298265
#	312873
#
# Disc length: 4383 seconds
#
# Revision: 1
# Processed by: cddbd v1.5.2PL0 Copyright (c) Steve Scherf et al.
# Submitted via: audiograbber 1.83.01
#
DISCID=1f111d14
DTITLE=ZZZ - Ein Kessel Buntes 4 - CD 2
DYEAR=1900
DGENRE=
TTITLE0=Marianne Rosenberg - Ergehört zu mir
TTITLE1=Peter Albert  - Eine neue Liebe ist wie ein neues Leben
TTITLE2=Katja Ebstein - Wunder gibt es immer wieder
TTITLE3=Mireille Mathieu - Der Pariser Tango
TTITLE4=Salvatore Adamo - Die schönen Damen
TTITLE5=Klaus Sommer - Good Bye My Love Good Bye
TTITLE6=Uwe Jensen - Mama Leone
TTITLE7=Dalida - Er war gerade 18 Jahr
TTITLE8=julio Iglesias - Alle Liebe dieser Erde
TTITLE9=Costa Cordalis - Shangri La
TTITLE10=Andreas Holm - du entschuldige, I kenn dich
TTITLE11=Udo Jürgens - Ein ehrenwertes Haus
TTITLE12=Gerd Christian - So bist du
TTITLE13=Hans-Jürgen Beyer - Ti Amo
TTITLE14=Ireen Sheer - Good Bye Mama
TTITLE15=Ricky Shayne - Mamy Blue
TTITLE16=Mary Roos - Nur die Liebe läßt uns leben
TTITLE17=Chris Roberts - Ich bin verliebt in die Liebe
TTITLE18=Cindy and Bert - Immer wieder sonntags
TTITLE19=Kreis - Ein Bett im Kornfeld
EXTD=
EXTT0=
EXTT1=
EXTT2=
EXTT3=
EXTT4=
EXTT5=
EXTT6=
EXTT7=
EXTT8=
EXTT9=
EXTT10=
EXTT11=
EXTT12=
EXTT13=
EXTT14=
EXTT15=
EXTT16=
EXTT17=
EXTT18=
EXTT19=
PLAYORDER=
